<mxfile host="app.diagrams.net" agent="Mozilla/5.0 (Windows NT 10.0; Win64; x64) AppleWebKit/537.36 (KHTML, like Gecko) Chrome/133.0.0.0 Safari/537.36" version="26.0.13">
  <diagram name="Page-1" id="riVb506h1pAvsger1tHK">
    <mxGraphModel dx="2359" dy="1913" grid="1" gridSize="10" guides="1" tooltips="1" connect="1" arrows="1" fold="1" page="1" pageScale="1" pageWidth="850" pageHeight="1100" math="0" shadow="0">
      <root>
        <mxCell id="0" />
        <mxCell id="1" parent="0" />
        <mxCell id="7LDQSDmz3teYoH1LVkY4-59" value="" style="rounded=1;whiteSpace=wrap;html=1;" parent="1" vertex="1">
          <mxGeometry x="40" y="-460" width="562" height="1720" as="geometry" />
        </mxCell>
        <mxCell id="7LDQSDmz3teYoH1LVkY4-73" value="" style="rounded=1;whiteSpace=wrap;html=1;" parent="1" vertex="1">
          <mxGeometry x="390" y="840" width="170" height="290" as="geometry" />
        </mxCell>
        <mxCell id="7LDQSDmz3teYoH1LVkY4-72" value="" style="rounded=1;whiteSpace=wrap;html=1;" parent="1" vertex="1">
          <mxGeometry x="390" y="530" width="170" height="290" as="geometry" />
        </mxCell>
        <mxCell id="7LDQSDmz3teYoH1LVkY4-71" value="" style="rounded=1;whiteSpace=wrap;html=1;" parent="1" vertex="1">
          <mxGeometry x="190" y="540" width="160" height="280" as="geometry" />
        </mxCell>
        <mxCell id="7LDQSDmz3teYoH1LVkY4-57" value="" style="rounded=1;whiteSpace=wrap;html=1;" parent="1" vertex="1">
          <mxGeometry x="680" y="877" width="350" height="300" as="geometry" />
        </mxCell>
        <mxCell id="7LDQSDmz3teYoH1LVkY4-34" value="" style="rounded=1;whiteSpace=wrap;html=1;" parent="1" vertex="1">
          <mxGeometry x="645" y="160" width="140" height="660" as="geometry" />
        </mxCell>
        <mxCell id="7LDQSDmz3teYoH1LVkY4-3" value="ReMonster Registry" style="image;aspect=fixed;html=1;points=[];align=center;fontSize=12;image=img/lib/azure2/containers/Container_Registries.svg;" parent="1" vertex="1">
          <mxGeometry x="-140" y="160" width="68" height="61" as="geometry" />
        </mxCell>
        <mxCell id="7LDQSDmz3teYoH1LVkY4-4" value="AKS ReMonster" style="image;aspect=fixed;html=1;points=[];align=center;fontSize=12;image=img/lib/azure2/compute/Kubernetes_Services.svg;" parent="1" vertex="1">
          <mxGeometry x="290" y="-530" width="68" height="60" as="geometry" />
        </mxCell>
        <mxCell id="7LDQSDmz3teYoH1LVkY4-6" value="Kubernetes Cluster" style="editableCssRules=.*;html=1;shape=image;verticalLabelPosition=bottom;labelBackgroundColor=#ffffff;verticalAlign=top;aspect=fixed;imageAspect=0;image=data:image/svg+xml,PHN2ZyB4bWxucz0iaHR0cDovL3d3dy53My5vcmcvMjAwMC9zdmciIHhtbG5zOnY9Imh0dHBzOi8vdmVjdGEuaW8vbmFubyIgd2lkdGg9IjcwMi44NDYzMTM0NzY1NjI1IiBoZWlnaHQ9IjY4MS45NjcxMDIwNTA3ODEyIiB2aWV3Qm94PSIxMC4wMDEwMjYxNTM1NjQ0NTMgMTAuMDAwOTMzNjQ3MTU1NzYyIDcwMi44NDYzMTM0NzY1NjI1IDY4MS45NjcxMDIwNTA3ODEyIj4mI3hhOwk8c3R5bGUgdHlwZT0idGV4dC9jc3MiPiYjeGE7CS5zdDB7ZmlsbDojMzI2Y2U1O30mI3hhOwkuc3Qxe2ZpbGw6I2ZmZjt9JiN4YTsJPC9zdHlsZT4mI3hhOwk8cGF0aCBjbGFzcz0ic3QwIiBkPSJNMzU4Ljk4NyAxMC4wNmMtNi4yMTMuMzEzLTEyLjMwMSAxLjg1NC0xNy45MDYgNC41MzFMOTYuNzM3IDEzMS4zNDJjLTEyLjgxMSA2LjExOC0yMi4xMTYgMTcuNjg5LTI1LjI4MSAzMS40MzhsLTYwLjI4MSAyNjIuMjVjLTIuODEyIDEyLjIwNy0uNTI0IDI1LjAyNCA2LjM0NCAzNS41MzFhNDYuMzUgNDYuMzUgMCAwIDAgMi42NTYgMy42ODhsMTY5LjEyNSAyMTAuMjgxYzguODY4IDExLjAyMiAyMi4zMTMgMTcuNDQgMzYuNTMxIDE3LjQzOGwyNzEuMjE5LS4wNjJjMTQuMjEyLjAxIDI3LjY1Ny02LjM5NiAzNi41MzEtMTcuNDA2bDE2OS4wNjMtMjEwLjMxM2M4Ljg3My0xMS4wMjggMTIuMTk3LTI1LjQ2NCA5LjAzMS0zOS4yMTlsLTYwLjM3NS0yNjIuMjVjLTMuMTY1LTEzLjc0OC0xMi40Ny0yNS4zMTktMjUuMjgxLTMxLjQzN0wzODEuNjQzIDE0LjU5MmMtNy4wNS0zLjM2OC0xNC44NDEtNC45MjYtMjIuNjU2LTQuNTMxeiIvPiYjeGE7CTxwYXRoIGNsYXNzPSJzdDEgc3QyIiBkPSJNMzYxLjQwOCA5OS4zMDhjLTguMDc3LjAwMS0xNC42MjYgNy4yNzYtMTQuNjI1IDE2LjI1IDAgLjEzOC4wMjguMjY5LjAzMS40MDYtLjAxMiAxLjIxOS0uMDcxIDIuNjg4LS4wMzEgMy43NS4xOTMgNS4xNzYgMS4zMjEgOS4xMzcgMiAxMy45MDYgMS4yMyAxMC4yMDcgMi4yNjEgMTguNjY3IDEuNjI1IDI2LjUzMS0uNjE5IDIuOTY1LTIuODAzIDUuNjc3LTQuNzUgNy41NjNsLS4zNDQgNi4xODhjLTguNzc3LjcyNy0xNy42MTIgMi4wNTktMjYuNDM3IDQuMDYzLTM3Ljk3NSA4LjYyMi03MC42NyAyOC4xODMtOTUuNTYyIDU0LjU5NC0xLjYxNS0xLjEwMi00LjQ0MS0zLjEyOS01LjI4MS0zLjc1LTIuNjExLjM1My01LjI1IDEuMTU4LTguNjg3LS44NDQtNi41NDUtNC40MDYtMTIuNTA2LTEwLjQ4Ny0xOS43MTktMTcuODEyLTMuMzA1LTMuNTA0LTUuNjk4LTYuODQxLTkuNjI1LTEwLjIxOS0uODkyLS43NjctMi4yNTMtMS44MDUtMy4yNS0yLjU5NC0zLjA3LTIuNDQ4LTYuNjkxLTMuNzI0LTEwLjE4Ny0zLjg0NC00LjQ5Ni0uMTU0LTguODI0IDEuNjA0LTExLjY1NiA1LjE1Ni01LjAzNSA2LjMxNS0zLjQyMyAxNS45NjggMy41OTQgMjEuNTYzLjA3MS4wNTcuMTQ3LjEwMS4yMTkuMTU2Ljk2NC43ODIgMi4xNDUgMS43ODMgMy4wMzEgMi40MzggNC4xNjcgMy4wNzcgNy45NzMgNC42NTEgMTIuMTI1IDcuMDk0IDguNzQ3IDUuNDAyIDE1Ljk5OCA5Ljg4MSAyMS43NSAxNS4yODEgMi4yNDYgMi4zOTQgMi42MzkgNi42MTMgMi45MzggOC40MzhsNC42ODggNC4xODhjLTI1LjA5MyAzNy43NjQtMzYuNzA3IDg0LjQwOS0yOS44NDQgMTMxLjkzOGwtNi4xMjUgMS43ODFjLTEuNjE0IDIuMDg1LTMuODk1IDUuMzY1LTYuMjgxIDYuMzQ0LTcuNTI1IDIuMzctMTUuOTk0IDMuMjQxLTI2LjIxOSA0LjMxMy00LjguMzk5LTguOTQyLjE2MS0xNC4wMzEgMS4xMjUtMS4xMi4yMTItMi42ODEuNjE5LTMuOTA2LjkwNi0uMDQzLjAwOS0uMDgyLjAyMi0uMTI1LjAzMS0uMDY3LjAxNS0uMTU1LjA0OC0uMjE5LjA2My04LjYyIDIuMDgzLTE0LjE1OCAxMC4wMDYtMTIuMzc1IDE3LjgxM3MxMC4yMDMgMTIuNTU3IDE4Ljg3NSAxMC42ODhjLjA2My0uMDE0LjE1NC0uMDE3LjIxOS0uMDMxLjA5OC0uMDIyLjE4NC0uMDcuMjgxLS4wOTQgMS4yMDktLjI2NSAyLjcyNC0uNTYxIDMuNzgxLS44NDQgNS4wMDMtMS4zNCA4LjYyNy0zLjMwOCAxMy4xMjUtNS4wMzEgOS42NzctMy40NzEgMTcuNjkyLTYuMzcgMjUuNS03LjUgMy4yNjEtLjI1NSA2LjY5NyAyLjAxMiA4LjQwNiAyLjk2OWw2LjM3NS0xLjA5NGMxNC42NyA0NS40ODMgNDUuNDE0IDgyLjI0NSA4NC4zNDQgMTA1LjMxMmwtMi42NTYgNi4zNzVjLjk1NyAyLjQ3NSAyLjAxMyA1LjgyNSAxLjMgOC4yNjktMi44MzkgNy4zNjEtNy43MDEgMTUuMTMxLTEzLjIzOCAyMy43OTMtMi42ODEgNC4wMDItNS40MjUgNy4xMDgtNy44NDQgMTEuNjg4LS41NzkgMS4wOTYtMS4zMTYgMi43NzktMS44NzUgMy45MzgtMy43NTkgOC4wNDItMS4wMDIgMTcuMzA1IDYuMjE5IDIwLjc4MSA3LjI2NiAzLjQ5OCAxNi4yODQtLjE5MSAyMC4xODctOC4yNS4wMDYtLjAxMS4wMjYtLjAyLjAzMS0uMDMxcy0uMDA0LS4wMjMgMC0uMDMxYy41NTYtMS4xNDMgMS4zNDQtMi42NDQgMS44MTMtMy43MTkgMi4wNzItNC43NDcgMi43NjItOC44MTUgNC4yMTktMTMuNDA2IDMuODctOS43MiA1Ljk5Ni0xOS45MTkgMTEuMzIzLTI2LjI3NCAxLjQ1OS0xLjc0IDMuODM3LTIuNDA5IDYuMzAyLTMuMDdsMy4zMTMtNmMzMy45MzggMTMuMDI3IDcxLjkyNyAxNi41MjIgMTA5Ljg3NSA3LjkwNmExODkuNzcgMTg5Ljc3IDAgMCAwIDI1LjA5NC03LjU2MmwzLjEyNSA1LjYyNWMyLjUwNi44MTUgNS4yNCAxLjIzNiA3LjQ2OSA0LjUzMSAzLjk4NSA2LjgwOSA2LjcxMSAxNC44NjQgMTAuMDMxIDI0LjU5NCAxLjQ1NyA0LjU5MSAyLjE3OCA4LjY1OSA0LjI1IDEzLjQwNi40NzIgMS4wODIgMS4yNTYgMi42MDUgMS44MTMgMy43NSAzLjg5NSA4LjA4NSAxMi45NDIgMTEuNzg3IDIwLjIxOSA4LjI4MSA3LjIxOS0zLjQ3OCA5Ljk4LTEyLjc0IDYuMjE5LTIwLjc4MWwtMS45MDYtMy45MzdjLTIuNDE5LTQuNTgtNS4xNjMtNy42NTQtNy44NDQtMTEuNjU2LTUuNTM3LTguNjYyLTEwLjEzLTE1Ljg1OC0xMi45NjktMjMuMjE5LTEuMTg3LTMuNzk3LjItNi4xNTggMS4xMjUtOC42MjUtLjU1NC0uNjM1LTEuNzM5LTQuMjItMi40MzctNS45MDYgNDAuNDU3LTIzLjg4OCA3MC4yOTktNjIuMDIxIDg0LjMxMy0xMDYuMDYyIDEuODkyLjI5NyA1LjE4Mi44NzkgNi4yNSAxLjA5NCAyLjItMS40NTEgNC4yMjItMy4zNDQgOC4xODgtMy4wMzEgNy44MDggMS4xMjkgMTUuODIzIDQuMDMgMjUuNSA3LjUgNC40OTggMS43MjMgOC4xMjIgMy43MjMgMTMuMTI1IDUuMDYzIDEuMDU3LjI4MyAyLjU3Mi41NDcgMy43ODEuODEzLjA5Ny4wMjQuMTgzLjA3MS4yODEuMDk0LjA2NS4wMTUuMTU2LjAxNy4yMTkuMDMxIDguNjcyIDEuODY3IDE3LjA5NC0yLjg3OSAxOC44NzUtMTAuNjg3cy0zLjc1NC0xNS43MzItMTIuMzc1LTE3LjgxMmMtMS4yNTQtLjI4NS0zLjAzMi0uNzY5LTQuMjUtMS01LjA4OS0uOTY0LTkuMjMxLS43MjYtMTQuMDMxLTEuMTI1LTEwLjIyNS0xLjA3MS0xOC42OTMtMS45NDMtMjYuMjE5LTQuMzEyLTMuMDY4LTEuMTktNS4yNTEtNC44NDEtNi4zMTMtNi4zNDRsLTUuOTA2LTEuNzE5YzMuMDYyLTIyLjE1NCAyLjIzNy00NS4yMTEtMy4wNjItNjguMjgxLTUuMzQ4LTIzLjI4NS0xNC44LTQ0LjU4MS0yNy40MDYtNjMuMzQ0bDUuMTg4LTQuNjU2Yy4yMzctMi42MjQuMDMzLTUuMzc2IDIuNzUtOC4yODEgNS43NTEtNS40MDEgMTMuMDAzLTkuODc5IDIxLjc1LTE1LjI4MSA0LjE1Mi0yLjQ0MyA3Ljk5LTQuMDE3IDEyLjE1Ni03LjA5NC45NDItLjY5NiAyLjIyOS0xLjc5OCAzLjIxOS0yLjU5NCA3LjAxNS01LjU5NiA4LjYzMS0xNS4yNDggMy41OTQtMjEuNTYycy0xNC43OTctNi45MDktMjEuODEyLTEuMzEyYy0uOTk5Ljc5MS0yLjM1NCAxLjgyMy0zLjI1IDIuNTk0LTMuOTI3IDMuMzc4LTYuMzUxIDYuNzE0LTkuNjU2IDEwLjIxOS03LjIxMiA3LjMyNi0xMy4xNzQgMTMuNDM4LTE5LjcxOSAxNy44NDQtMi44MzYgMS42NTEtNi45OSAxLjA4LTguODc1Ljk2OWwtNS41NjIgMy45NjljLTMxLjcxOS0zMy4yNjEtNzQuOTA1LTU0LjUyNS0xMjEuNDA2LTU4LjY1NmwtLjM0NC02LjUzMWMtMS45MDQtMS44MjItNC4yMDMtMy4zNzctNC43ODEtNy4zMTItLjYzNi03Ljg2NC40MjYtMTYuMzI1IDEuNjU2LTI2LjUzMS42NzktNC43NjkgMS44MDctOC43MyAyLTEzLjkwNi4wNDQtMS4xNzctLjAyNi0yLjg4NC0uMDMxLTQuMTU2LS4wMDEtOC45NzQtNi41NDgtMTYuMjUxLTE0LjYyNS0xNi4yNXptLTE4LjMxMiAxMTMuNDM4bC00LjM0NCA3Ni43MTktLjMxMi4xNTZjLS4yOTEgNi44NjMtNS45NCAxMi4zNDQtMTIuODc1IDEyLjM0NGExMi44MiAxMi44MiAwIDAgMS03LjU5NC0yLjQ2OWwtLjEyNS4wNjMtNjIuOTA2LTQ0LjU5NGMxOS4zMzQtMTkuMDExIDQ0LjA2My0zMy4wNiA3Mi41NjItMzkuNTMxIDUuMjA2LTEuMTgyIDEwLjQxLTIuMDU5IDE1LjU5NC0yLjY4N3ptMzYuNjU2IDBjMzMuMjczIDQuMDkyIDY0LjA0NSAxOS4xNTkgODcuNjI1IDQyLjI1bC02Mi41IDQ0LjMxMy0uMjE5LS4wOTRhMTIuOTEgMTIuOTEgMCAwIDEtMTcuNjg3LTIuMzc1Yy0xLjc3MS0yLjIyMS0yLjcwMS00LjgzMi0yLjgxMi03LjQ2OWwtLjA2Mi0uMDMxek0yMzIuMTI2IDI4My42Mmw1Ny40MzcgNTEuMzc1LS4wNjIuMzEzYTEyLjg4IDEyLjg4IDAgMCAxIDEuNjI1IDE3Ljc1IDEyLjg5IDEyLjg5IDAgMCAxLTYuNjg3IDQuNDA2bC0uMDYyLjI1LTczLjYyNSAyMS4yNWMtMy43NDctMzQuMjY1IDQuMzI5LTY3LjU3NCAyMS4zNzUtOTUuMzQ0em0yNTguMTU2LjAzMWM4LjUzNCAxMy44MzMgMTQuOTk3IDI5LjI4MiAxOC44NDQgNDYuMDMxIDMuODAxIDE2LjU0OCA0Ljc1NSAzMy4wNjcgMy4xODggNDkuMDMxbC03NC0yMS4zMTItLjA2Mi0uMzEyYy02LjYyNy0xLjgxMS0xMC42OTktOC41NTItOS4xNTYtMTUuMzEyLjYzMi0yLjc3IDIuMTAyLTUuMTEzIDQuMDk0LTYuODQ0bC0uMDMxLS4xNTYgNTcuMTI1LTUxLjEyNXptLTE0MC42NTYgNTUuMzEzaDIzLjUzMWwxNC42MjUgMTguMjgxLTUuMjUgMjIuODEzLTIxLjEyNSAxMC4xNTYtMjEuMTg3LTEwLjE4Ny01LjI1LTIyLjgxMnptNzUuNDM4IDYyLjU2M2ExMi44MyAxMi44MyAwIDAgMSAyLjk2OS4yMTlsLjEyNS0uMTU2IDc2LjE1NiAxMi44NzVjLTExLjE0NiAzMS4zMTMtMzIuNDczIDU4LjQ0LTYwLjk2OSA3Ni41OTRsLTI5LjU2Mi03MS40MDYuMDk0LS4xMjVjLTIuNzE2LTYuMzEuMDAyLTEzLjcxIDYuMjUtMTYuNzE5IDEuNi0uNzcgMy4yNzEtMS4xOTcgNC45MzgtMS4yODF6bS0xMjcuOTA2LjMxM2ExMi45IDEyLjkgMCAwIDEgMTIuMzc1IDEwLjAzMSAxMi43NyAxMi43NyAwIDAgMS0uNzE5IDcuOTM4bC4yMTkuMjgxLTI5LjI1IDcwLjY4OGMtMjcuMzQ3LTE3LjU0OS00OS4xMjktNDMuODI0LTYwLjc4MS03Ni4wNjJsNzUuNS0xMi44MTIuMTI1LjE1NmMuODQ1LS4xNTUgMS43MDEtLjIzIDIuNTMxLS4yMTl6bTYzLjc4MSAzMC45NjljMi4wMjQtLjA3NCA0LjA3OS4zNDEgNi4wMzEgMS4yODEgMi41NiAxLjIzMyA0LjUzNyAzLjE3MyA1Ljc4MSA1LjVoLjI4MWwzNy4yMTkgNjcuMjVjLTQuODMgMS42MTktOS43OTYgMy4wMDMtMTQuODc1IDQuMTU2LTI4LjQ2NSA2LjQ2My01Ni44MzkgNC41MDUtODIuNTMxLTQuMjVsMzcuMTI1LTY3LjEyNWguMDYzYTEyLjkxIDEyLjkxIDAgMCAxIDEwLjkwNi02LjgxMnoiIHN0cm9rZT0ibm9uZSIgc3Ryb2tlLXdpZHRoPSIuMjUiLz4mI3hhOzwvc3ZnPg==;fontColor=default;" parent="1" vertex="1">
          <mxGeometry x="110" y="1177" width="40" height="38" as="geometry" />
        </mxCell>
        <mxCell id="7LDQSDmz3teYoH1LVkY4-8" value="Azure CosmoDB" style="image;aspect=fixed;html=1;points=[];align=center;fontSize=12;image=img/lib/azure2/databases/Azure_Cosmos_DB.svg;" parent="1" vertex="1">
          <mxGeometry x="683" y="80" width="64" height="64" as="geometry" />
        </mxCell>
        <mxCell id="7LDQSDmz3teYoH1LVkY4-10" value="Azure Storage Account" style="image;aspect=fixed;html=1;points=[];align=center;fontSize=12;image=img/lib/azure2/storage/Storage_Accounts.svg;" parent="1" vertex="1">
          <mxGeometry x="822.5" y="810" width="65" height="52" as="geometry" />
        </mxCell>
        <mxCell id="7LDQSDmz3teYoH1LVkY4-36" value="remonster-testnet" style="shape=cylinder3;whiteSpace=wrap;html=1;boundedLbl=1;backgroundOutline=1;size=15;" parent="1" vertex="1">
          <mxGeometry x="680" y="714" width="70" height="80" as="geometry" />
        </mxCell>
        <mxCell id="7LDQSDmz3teYoH1LVkY4-37" value="remonster-staging" style="shape=cylinder3;whiteSpace=wrap;html=1;boundedLbl=1;backgroundOutline=1;size=15;" parent="1" vertex="1">
          <mxGeometry x="680" y="627" width="70" height="80" as="geometry" />
        </mxCell>
        <mxCell id="7LDQSDmz3teYoH1LVkY4-38" value="remonster-mainnet" style="shape=cylinder3;whiteSpace=wrap;html=1;boundedLbl=1;backgroundOutline=1;size=15;" parent="1" vertex="1">
          <mxGeometry x="680" y="536" width="70" height="80" as="geometry" />
        </mxCell>
        <mxCell id="7LDQSDmz3teYoH1LVkY4-39" value="remonster-alpha" style="shape=cylinder3;whiteSpace=wrap;html=1;boundedLbl=1;backgroundOutline=1;size=15;" parent="1" vertex="1">
          <mxGeometry x="680" y="450" width="70" height="80" as="geometry" />
        </mxCell>
        <mxCell id="7LDQSDmz3teYoH1LVkY4-7" value="Game API Mainnet&lt;div&gt;api2.remonster.world&lt;/div&gt;" style="aspect=fixed;sketch=0;html=1;dashed=0;whitespace=wrap;verticalLabelPosition=bottom;verticalAlign=top;fillColor=#2875E2;strokeColor=#ffffff;points=[[0.005,0.63,0],[0.1,0.2,0],[0.9,0.2,0],[0.5,0,0],[0.995,0.63,0],[0.72,0.99,0],[0.5,1,0],[0.28,0.99,0]];shape=mxgraph.kubernetes.icon2;prIcon=pod" parent="1" vertex="1">
          <mxGeometry x="450" y="540" width="50" height="48" as="geometry" />
        </mxCell>
        <mxCell id="7LDQSDmz3teYoH1LVkY4-15" value="Game API Staging&lt;div&gt;api-staging.remonster.world&lt;/div&gt;" style="aspect=fixed;sketch=0;html=1;dashed=0;whitespace=wrap;verticalLabelPosition=bottom;verticalAlign=top;fillColor=#2875E2;strokeColor=#ffffff;points=[[0.005,0.63,0],[0.1,0.2,0],[0.9,0.2,0],[0.5,0,0],[0.995,0.63,0],[0.72,0.99,0],[0.5,1,0],[0.28,0.99,0]];shape=mxgraph.kubernetes.icon2;prIcon=pod" parent="1" vertex="1">
          <mxGeometry x="450" y="633" width="50" height="48" as="geometry" />
        </mxCell>
        <mxCell id="7LDQSDmz3teYoH1LVkY4-16" value="Game API Testnet&lt;div&gt;api-testnet.remonster.world&lt;/div&gt;" style="aspect=fixed;sketch=0;html=1;dashed=0;whitespace=wrap;verticalLabelPosition=bottom;verticalAlign=top;fillColor=#2875E2;strokeColor=#ffffff;points=[[0.005,0.63,0],[0.1,0.2,0],[0.9,0.2,0],[0.5,0,0],[0.995,0.63,0],[0.72,0.99,0],[0.5,1,0],[0.28,0.99,0]];shape=mxgraph.kubernetes.icon2;prIcon=pod" parent="1" vertex="1">
          <mxGeometry x="450" y="720" width="50" height="48" as="geometry" />
        </mxCell>
        <mxCell id="7LDQSDmz3teYoH1LVkY4-17" value="Game Chat Staging&lt;div&gt;chat-staging.remonster.world&lt;/div&gt;" style="aspect=fixed;sketch=0;html=1;dashed=0;whitespace=wrap;verticalLabelPosition=bottom;verticalAlign=top;fillColor=#2875E2;strokeColor=#ffffff;points=[[0.005,0.63,0],[0.1,0.2,0],[0.9,0.2,0],[0.5,0,0],[0.995,0.63,0],[0.72,0.99,0],[0.5,1,0],[0.28,0.99,0]];shape=mxgraph.kubernetes.icon2;prIcon=pod" parent="1" vertex="1">
          <mxGeometry x="450" y="939" width="50" height="48" as="geometry" />
        </mxCell>
        <mxCell id="7LDQSDmz3teYoH1LVkY4-18" value="Game Chat Test&lt;div&gt;chat-test.remonster.world&lt;/div&gt;" style="aspect=fixed;sketch=0;html=1;dashed=0;whitespace=wrap;verticalLabelPosition=bottom;verticalAlign=top;fillColor=#2875E2;strokeColor=#ffffff;points=[[0.005,0.63,0],[0.1,0.2,0],[0.9,0.2,0],[0.5,0,0],[0.995,0.63,0],[0.72,0.99,0],[0.5,1,0],[0.28,0.99,0]];shape=mxgraph.kubernetes.icon2;prIcon=pod" parent="1" vertex="1">
          <mxGeometry x="450" y="1027" width="50" height="48" as="geometry" />
        </mxCell>
        <mxCell id="7LDQSDmz3teYoH1LVkY4-32" value="Game Chat Server&lt;div&gt;chat.remonster.world&lt;/div&gt;" style="aspect=fixed;sketch=0;html=1;dashed=0;whitespace=wrap;verticalLabelPosition=bottom;verticalAlign=top;fillColor=#2875E2;strokeColor=#ffffff;points=[[0.005,0.63,0],[0.1,0.2,0],[0.9,0.2,0],[0.5,0,0],[0.995,0.63,0],[0.72,0.99,0],[0.5,1,0],[0.28,0.99,0]];shape=mxgraph.kubernetes.icon2;prIcon=pod" parent="1" vertex="1">
          <mxGeometry x="450" y="850" width="50" height="48" as="geometry" />
        </mxCell>
        <mxCell id="7LDQSDmz3teYoH1LVkY4-24" value="Game Production FE&lt;div&gt;beta.remonster.world&lt;/div&gt;" style="aspect=fixed;sketch=0;html=1;dashed=0;whitespace=wrap;verticalLabelPosition=bottom;verticalAlign=top;fillColor=#2875E2;strokeColor=#ffffff;points=[[0.005,0.63,0],[0.1,0.2,0],[0.9,0.2,0],[0.5,0,0],[0.995,0.63,0],[0.72,0.99,0],[0.5,1,0],[0.28,0.99,0]];shape=mxgraph.kubernetes.icon2;prIcon=pod" parent="1" vertex="1">
          <mxGeometry x="246" y="550" width="50" height="48" as="geometry" />
        </mxCell>
        <mxCell id="7LDQSDmz3teYoH1LVkY4-25" value="Game Staging&amp;nbsp;FE&lt;div&gt;&lt;div&gt;staging.remonster.world&lt;/div&gt;&lt;/div&gt;" style="aspect=fixed;sketch=0;html=1;dashed=0;whitespace=wrap;verticalLabelPosition=bottom;verticalAlign=top;fillColor=#2875E2;strokeColor=#ffffff;points=[[0.005,0.63,0],[0.1,0.2,0],[0.9,0.2,0],[0.5,0,0],[0.995,0.63,0],[0.72,0.99,0],[0.5,1,0],[0.28,0.99,0]];shape=mxgraph.kubernetes.icon2;prIcon=pod" parent="1" vertex="1">
          <mxGeometry x="246" y="643" width="50" height="48" as="geometry" />
        </mxCell>
        <mxCell id="7LDQSDmz3teYoH1LVkY4-26" value="&lt;div&gt;Game Test FE&lt;div&gt;&lt;/div&gt;test.remonster.world&lt;/div&gt;" style="aspect=fixed;sketch=0;html=1;dashed=0;whitespace=wrap;verticalLabelPosition=bottom;verticalAlign=top;fillColor=#2875E2;strokeColor=#ffffff;points=[[0.005,0.63,0],[0.1,0.2,0],[0.9,0.2,0],[0.5,0,0],[0.995,0.63,0],[0.72,0.99,0],[0.5,1,0],[0.28,0.99,0]];shape=mxgraph.kubernetes.icon2;prIcon=pod" parent="1" vertex="1">
          <mxGeometry x="246" y="730" width="50" height="48" as="geometry" />
        </mxCell>
        <mxCell id="7LDQSDmz3teYoH1LVkY4-63" value="File" style="image;aspect=fixed;html=1;points=[];align=center;fontSize=12;image=img/lib/azure2/storage/Azure_Fileshare.svg;" parent="1" vertex="1">
          <mxGeometry x="730" y="899" width="68" height="68" as="geometry" />
        </mxCell>
        <mxCell id="7LDQSDmz3teYoH1LVkY4-64" value="Blob" style="image;aspect=fixed;html=1;points=[];align=center;fontSize=12;image=img/lib/azure2/general/Storage_Container.svg;" parent="1" vertex="1">
          <mxGeometry x="910" y="907" width="64" height="52" as="geometry" />
        </mxCell>
        <mxCell id="7LDQSDmz3teYoH1LVkY4-65" value="&lt;span style=&quot;background-color: rgb(251, 251, 251);&quot;&gt;Game Production Build&lt;/span&gt;" style="html=1;verticalLabelPosition=bottom;align=center;labelBackgroundColor=#ffffff;verticalAlign=top;strokeWidth=2;strokeColor=#0080F0;shadow=0;dashed=0;shape=mxgraph.ios7.icons.folder;" parent="1" vertex="1">
          <mxGeometry x="760" y="1007" width="30" height="19.5" as="geometry" />
        </mxCell>
        <mxCell id="7LDQSDmz3teYoH1LVkY4-66" value="&lt;span style=&quot;background-color: rgb(251, 251, 251);&quot;&gt;Game Staging Build&lt;/span&gt;" style="html=1;verticalLabelPosition=bottom;align=center;labelBackgroundColor=#ffffff;verticalAlign=top;strokeWidth=2;strokeColor=#0080F0;shadow=0;dashed=0;shape=mxgraph.ios7.icons.folder;" parent="1" vertex="1">
          <mxGeometry x="760" y="1058" width="30" height="19.5" as="geometry" />
        </mxCell>
        <mxCell id="7LDQSDmz3teYoH1LVkY4-67" value="&lt;span style=&quot;background-color: rgb(251, 251, 251);&quot;&gt;Game Test Build&lt;/span&gt;" style="html=1;verticalLabelPosition=bottom;align=center;labelBackgroundColor=#ffffff;verticalAlign=top;strokeWidth=2;strokeColor=#0080F0;shadow=0;dashed=0;shape=mxgraph.ios7.icons.folder;" parent="1" vertex="1">
          <mxGeometry x="760" y="1111.25" width="30" height="19.5" as="geometry" />
        </mxCell>
        <mxCell id="7LDQSDmz3teYoH1LVkY4-68" value="Static Image" style="sketch=0;outlineConnect=0;fontColor=#232F3E;gradientColor=none;fillColor=#ED7100;strokeColor=none;dashed=0;verticalLabelPosition=bottom;verticalAlign=top;align=center;html=1;fontSize=12;fontStyle=0;aspect=fixed;pointerEvents=1;shape=mxgraph.aws4.container_registry_image;" parent="1" vertex="1">
          <mxGeometry x="918" y="999" width="48" height="48" as="geometry" />
        </mxCell>
        <mxCell id="7LDQSDmz3teYoH1LVkY4-69" value="Player Upload" style="sketch=0;outlineConnect=0;fontColor=#232F3E;gradientColor=none;fillColor=#ED7100;strokeColor=none;dashed=0;verticalLabelPosition=bottom;verticalAlign=top;align=center;html=1;fontSize=12;fontStyle=0;aspect=fixed;pointerEvents=1;shape=mxgraph.aws4.container_registry_image;" parent="1" vertex="1">
          <mxGeometry x="918" y="1074" width="48" height="48" as="geometry" />
        </mxCell>
        <mxCell id="F7SO71zOL6z4TsnCkw2o-3" value="Let&#39;s Encrypt" style="shape=image;verticalLabelPosition=bottom;labelBackgroundColor=default;verticalAlign=top;aspect=fixed;imageAspect=0;image=https://cdn.worldvectorlogo.com/logos/lets-encrypt-icon.svg;" vertex="1" parent="1">
          <mxGeometry x="-122" y="410.5" width="52.57" height="55" as="geometry" />
        </mxCell>
        <mxCell id="F7SO71zOL6z4TsnCkw2o-4" value="Cert Manager" style="shape=image;verticalLabelPosition=bottom;labelBackgroundColor=default;verticalAlign=top;aspect=fixed;imageAspect=0;image=https://raw.githubusercontent.com/cert-manager/cert-manager/master/logo/logo-small.png;" vertex="1" parent="1">
          <mxGeometry x="80" y="413" width="50" height="50" as="geometry" />
        </mxCell>
        <mxCell id="F7SO71zOL6z4TsnCkw2o-5" value="NGINX&lt;div&gt;Ingress Controller&lt;/div&gt;" style="aspect=fixed;sketch=0;html=1;dashed=0;whitespace=wrap;verticalLabelPosition=bottom;verticalAlign=top;fillColor=#2875E2;strokeColor=#ffffff;points=[[0.005,0.63,0],[0.1,0.2,0],[0.9,0.2,0],[0.5,0,0],[0.995,0.63,0],[0.72,0.99,0],[0.5,1,0],[0.28,0.99,0]];shape=mxgraph.kubernetes.icon2;prIcon=ing" vertex="1" parent="1">
          <mxGeometry x="80" y="300" width="50" height="48" as="geometry" />
        </mxCell>
        <mxCell id="F7SO71zOL6z4TsnCkw2o-9" value="Game Image Proxy&lt;div&gt;img.remonster.world&lt;/div&gt;" style="aspect=fixed;sketch=0;html=1;dashed=0;whitespace=wrap;verticalLabelPosition=bottom;verticalAlign=top;fillColor=#2875E2;strokeColor=#ffffff;points=[[0.005,0.63,0],[0.1,0.2,0],[0.9,0.2,0],[0.5,0,0],[0.995,0.63,0],[0.72,0.99,0],[0.5,1,0],[0.28,0.99,0]];shape=mxgraph.kubernetes.icon2;prIcon=pod" vertex="1" parent="1">
          <mxGeometry x="450" y="1153.75" width="50" height="48" as="geometry" />
        </mxCell>
        <mxCell id="F7SO71zOL6z4TsnCkw2o-13" value="" style="rounded=1;whiteSpace=wrap;html=1;" vertex="1" parent="1">
          <mxGeometry x="186" y="840" width="170" height="290" as="geometry" />
        </mxCell>
        <mxCell id="F7SO71zOL6z4TsnCkw2o-15" value="Game Lobby Staging&lt;br&gt;&lt;div&gt;&lt;span style=&quot;background-color: transparent; color: light-dark(rgb(0, 0, 0), rgb(255, 255, 255));&quot;&gt;lobby&lt;/span&gt;-staging.remonster.world&lt;/div&gt;" style="aspect=fixed;sketch=0;html=1;dashed=0;whitespace=wrap;verticalLabelPosition=bottom;verticalAlign=top;fillColor=#2875E2;strokeColor=#ffffff;points=[[0.005,0.63,0],[0.1,0.2,0],[0.9,0.2,0],[0.5,0,0],[0.995,0.63,0],[0.72,0.99,0],[0.5,1,0],[0.28,0.99,0]];shape=mxgraph.kubernetes.icon2;prIcon=pod" vertex="1" parent="1">
          <mxGeometry x="246" y="936.5" width="50" height="48" as="geometry" />
        </mxCell>
        <mxCell id="F7SO71zOL6z4TsnCkw2o-16" value="Game Lobby Test&lt;br&gt;&lt;div&gt;&lt;span style=&quot;background-color: transparent; color: light-dark(rgb(0, 0, 0), rgb(255, 255, 255));&quot;&gt;lobby&lt;/span&gt;-test.remonster&lt;/div&gt;" style="aspect=fixed;sketch=0;html=1;dashed=0;whitespace=wrap;verticalLabelPosition=bottom;verticalAlign=top;fillColor=#2875E2;strokeColor=#ffffff;points=[[0.005,0.63,0],[0.1,0.2,0],[0.9,0.2,0],[0.5,0,0],[0.995,0.63,0],[0.72,0.99,0],[0.5,1,0],[0.28,0.99,0]];shape=mxgraph.kubernetes.icon2;prIcon=pod" vertex="1" parent="1">
          <mxGeometry x="246" y="1036.5" width="50" height="48" as="geometry" />
        </mxCell>
        <mxCell id="F7SO71zOL6z4TsnCkw2o-17" value="Game Lobby Server&lt;br&gt;&lt;div&gt;&lt;span style=&quot;background-color: transparent; color: light-dark(rgb(0, 0, 0), rgb(255, 255, 255));&quot;&gt;lobby&lt;/span&gt;.remonster.world&lt;/div&gt;" style="aspect=fixed;sketch=0;html=1;dashed=0;whitespace=wrap;verticalLabelPosition=bottom;verticalAlign=top;fillColor=#2875E2;strokeColor=#ffffff;points=[[0.005,0.63,0],[0.1,0.2,0],[0.9,0.2,0],[0.5,0,0],[0.995,0.63,0],[0.72,0.99,0],[0.5,1,0],[0.28,0.99,0]];shape=mxgraph.kubernetes.icon2;prIcon=pod" vertex="1" parent="1">
          <mxGeometry x="246" y="846.5" width="50" height="48" as="geometry" />
        </mxCell>
        <mxCell id="F7SO71zOL6z4TsnCkw2o-24" value="" style="rounded=1;whiteSpace=wrap;html=1;" vertex="1" parent="1">
          <mxGeometry x="386" y="190" width="170" height="300" as="geometry" />
        </mxCell>
        <mxCell id="F7SO71zOL6z4TsnCkw2o-25" value="" style="rounded=1;whiteSpace=wrap;html=1;" vertex="1" parent="1">
          <mxGeometry x="186" y="190" width="170" height="300" as="geometry" />
        </mxCell>
        <mxCell id="F7SO71zOL6z4TsnCkw2o-26" value="" style="rounded=1;whiteSpace=wrap;html=1;" vertex="1" parent="1">
          <mxGeometry x="190" y="-120" width="160" height="300" as="geometry" />
        </mxCell>
        <mxCell id="F7SO71zOL6z4TsnCkw2o-27" value="Blockchain API Mainnet&lt;br&gt;&lt;div&gt;&lt;span style=&quot;background-color: transparent; color: light-dark(rgb(0, 0, 0), rgb(255, 255, 255));&quot;&gt;blockchain-&lt;/span&gt;api.remonster.world&lt;/div&gt;" style="aspect=fixed;sketch=0;html=1;dashed=0;whitespace=wrap;verticalLabelPosition=bottom;verticalAlign=top;fillColor=#2875E2;strokeColor=#ffffff;points=[[0.005,0.63,0],[0.1,0.2,0],[0.9,0.2,0],[0.5,0,0],[0.995,0.63,0],[0.72,0.99,0],[0.5,1,0],[0.28,0.99,0]];shape=mxgraph.kubernetes.icon2;prIcon=pod" vertex="1" parent="1">
          <mxGeometry x="246" y="200" width="50" height="48" as="geometry" />
        </mxCell>
        <mxCell id="F7SO71zOL6z4TsnCkw2o-28" value="Blockchain API Staging&lt;br&gt;&lt;div&gt;&lt;span style=&quot;background-color: transparent; color: light-dark(rgb(0, 0, 0), rgb(255, 255, 255));&quot;&gt;blockchain-&lt;/span&gt;api-staging&lt;/div&gt;&lt;div&gt;.remonster.world&lt;/div&gt;" style="aspect=fixed;sketch=0;html=1;dashed=0;whitespace=wrap;verticalLabelPosition=bottom;verticalAlign=top;fillColor=#2875E2;strokeColor=#ffffff;points=[[0.005,0.63,0],[0.1,0.2,0],[0.9,0.2,0],[0.5,0,0],[0.995,0.63,0],[0.72,0.99,0],[0.5,1,0],[0.28,0.99,0]];shape=mxgraph.kubernetes.icon2;prIcon=pod" vertex="1" parent="1">
          <mxGeometry x="246" y="290" width="50" height="48" as="geometry" />
        </mxCell>
        <mxCell id="F7SO71zOL6z4TsnCkw2o-29" value="Blockchain API Testnet&lt;br&gt;&lt;div&gt;&lt;span style=&quot;background-color: transparent; color: light-dark(rgb(0, 0, 0), rgb(255, 255, 255));&quot;&gt;blockchain-&lt;/span&gt;api-testnet&lt;/div&gt;&lt;div&gt;.remonster.world&lt;/div&gt;" style="aspect=fixed;sketch=0;html=1;dashed=0;whitespace=wrap;verticalLabelPosition=bottom;verticalAlign=top;fillColor=#2875E2;strokeColor=#ffffff;points=[[0.005,0.63,0],[0.1,0.2,0],[0.9,0.2,0],[0.5,0,0],[0.995,0.63,0],[0.72,0.99,0],[0.5,1,0],[0.28,0.99,0]];shape=mxgraph.kubernetes.icon2;prIcon=pod" vertex="1" parent="1">
          <mxGeometry x="246" y="390" width="50" height="48" as="geometry" />
        </mxCell>
        <mxCell id="F7SO71zOL6z4TsnCkw2o-30" value="Blockchain Sign&amp;nbsp;Staging&lt;br&gt;&lt;div&gt;&lt;span style=&quot;background-color: transparent; color: light-dark(rgb(0, 0, 0), rgb(255, 255, 255));&quot;&gt;blockchain-sign&lt;/span&gt;-staging&lt;/div&gt;&lt;div&gt;.remonster.world&lt;/div&gt;" style="aspect=fixed;sketch=0;html=1;dashed=0;whitespace=wrap;verticalLabelPosition=bottom;verticalAlign=top;fillColor=#2875E2;strokeColor=#ffffff;points=[[0.005,0.63,0],[0.1,0.2,0],[0.9,0.2,0],[0.5,0,0],[0.995,0.63,0],[0.72,0.99,0],[0.5,1,0],[0.28,0.99,0]];shape=mxgraph.kubernetes.icon2;prIcon=pod" vertex="1" parent="1">
          <mxGeometry x="446" y="290" width="50" height="48" as="geometry" />
        </mxCell>
        <mxCell id="F7SO71zOL6z4TsnCkw2o-31" value="Blockchain Sign&amp;nbsp;Testnet&lt;br&gt;&lt;div&gt;&lt;span style=&quot;background-color: transparent; color: light-dark(rgb(0, 0, 0), rgb(255, 255, 255));&quot;&gt;blockchain-sign&lt;/span&gt;-test&lt;/div&gt;&lt;div&gt;.remonster.world&lt;/div&gt;" style="aspect=fixed;sketch=0;html=1;dashed=0;whitespace=wrap;verticalLabelPosition=bottom;verticalAlign=top;fillColor=#2875E2;strokeColor=#ffffff;points=[[0.005,0.63,0],[0.1,0.2,0],[0.9,0.2,0],[0.5,0,0],[0.995,0.63,0],[0.72,0.99,0],[0.5,1,0],[0.28,0.99,0]];shape=mxgraph.kubernetes.icon2;prIcon=pod" vertex="1" parent="1">
          <mxGeometry x="446" y="387" width="50" height="48" as="geometry" />
        </mxCell>
        <mxCell id="F7SO71zOL6z4TsnCkw2o-32" value="Blockchain Sign&lt;br&gt;&lt;div&gt;&lt;span style=&quot;background-color: transparent; color: light-dark(rgb(0, 0, 0), rgb(255, 255, 255));&quot;&gt;blockchain-sign&lt;/span&gt;.remonster.world&lt;/div&gt;" style="aspect=fixed;sketch=0;html=1;dashed=0;whitespace=wrap;verticalLabelPosition=bottom;verticalAlign=top;fillColor=#2875E2;strokeColor=#ffffff;points=[[0.005,0.63,0],[0.1,0.2,0],[0.9,0.2,0],[0.5,0,0],[0.995,0.63,0],[0.72,0.99,0],[0.5,1,0],[0.28,0.99,0]];shape=mxgraph.kubernetes.icon2;prIcon=pod" vertex="1" parent="1">
          <mxGeometry x="446" y="200" width="50" height="48" as="geometry" />
        </mxCell>
        <mxCell id="F7SO71zOL6z4TsnCkw2o-33" value="Marketplace&lt;div&gt;marketplace.remonster.world&lt;/div&gt;" style="aspect=fixed;sketch=0;html=1;dashed=0;whitespace=wrap;verticalLabelPosition=bottom;verticalAlign=top;fillColor=#2875E2;strokeColor=#ffffff;points=[[0.005,0.63,0],[0.1,0.2,0],[0.9,0.2,0],[0.5,0,0],[0.995,0.63,0],[0.72,0.99,0],[0.5,1,0],[0.28,0.99,0]];shape=mxgraph.kubernetes.icon2;prIcon=pod" vertex="1" parent="1">
          <mxGeometry x="246" y="-110" width="50" height="48" as="geometry" />
        </mxCell>
        <mxCell id="F7SO71zOL6z4TsnCkw2o-34" value="&lt;div&gt;&lt;div&gt;Marketplace Staging&lt;/div&gt;&lt;div&gt;marketplace-staging&lt;/div&gt;&lt;div&gt;.remonster.world&lt;/div&gt;&lt;/div&gt;" style="aspect=fixed;sketch=0;html=1;dashed=0;whitespace=wrap;verticalLabelPosition=bottom;verticalAlign=top;fillColor=#2875E2;strokeColor=#ffffff;points=[[0.005,0.63,0],[0.1,0.2,0],[0.9,0.2,0],[0.5,0,0],[0.995,0.63,0],[0.72,0.99,0],[0.5,1,0],[0.28,0.99,0]];shape=mxgraph.kubernetes.icon2;prIcon=pod" vertex="1" parent="1">
          <mxGeometry x="246" y="-18" width="50" height="48" as="geometry" />
        </mxCell>
        <mxCell id="F7SO71zOL6z4TsnCkw2o-35" value="&lt;div&gt;Marketplace Testnet&lt;/div&gt;&lt;div&gt;marketplace-testnet&lt;/div&gt;&lt;div&gt;.remonster.world&lt;/div&gt;" style="aspect=fixed;sketch=0;html=1;dashed=0;whitespace=wrap;verticalLabelPosition=bottom;verticalAlign=top;fillColor=#2875E2;strokeColor=#ffffff;points=[[0.005,0.63,0],[0.1,0.2,0],[0.9,0.2,0],[0.5,0,0],[0.995,0.63,0],[0.72,0.99,0],[0.5,1,0],[0.28,0.99,0]];shape=mxgraph.kubernetes.icon2;prIcon=pod" vertex="1" parent="1">
          <mxGeometry x="246" y="80" width="50" height="48" as="geometry" />
        </mxCell>
        <mxCell id="F7SO71zOL6z4TsnCkw2o-39" value="" style="rounded=1;whiteSpace=wrap;html=1;" vertex="1" parent="1">
          <mxGeometry x="180" y="-430" width="170" height="290" as="geometry" />
        </mxCell>
        <mxCell id="F7SO71zOL6z4TsnCkw2o-40" value="Marketplace Admin&amp;nbsp;Staging&lt;br&gt;&lt;div&gt;&lt;span style=&quot;background-color: transparent; color: light-dark(rgb(0, 0, 0), rgb(255, 255, 255));&quot;&gt;admin&lt;/span&gt;-staging.remonster.world&lt;/div&gt;" style="aspect=fixed;sketch=0;html=1;dashed=0;whitespace=wrap;verticalLabelPosition=bottom;verticalAlign=top;fillColor=#2875E2;strokeColor=#ffffff;points=[[0.005,0.63,0],[0.1,0.2,0],[0.9,0.2,0],[0.5,0,0],[0.995,0.63,0],[0.72,0.99,0],[0.5,1,0],[0.28,0.99,0]];shape=mxgraph.kubernetes.icon2;prIcon=pod" vertex="1" parent="1">
          <mxGeometry x="240" y="-333.5" width="50" height="48" as="geometry" />
        </mxCell>
        <mxCell id="F7SO71zOL6z4TsnCkw2o-41" value="Marketplace Admin&amp;nbsp;Testnet&lt;br&gt;&lt;div&gt;&lt;span style=&quot;background-color: transparent; color: light-dark(rgb(0, 0, 0), rgb(255, 255, 255));&quot;&gt;admin&lt;/span&gt;-testnet.remonster&lt;/div&gt;" style="aspect=fixed;sketch=0;html=1;dashed=0;whitespace=wrap;verticalLabelPosition=bottom;verticalAlign=top;fillColor=#2875E2;strokeColor=#ffffff;points=[[0.005,0.63,0],[0.1,0.2,0],[0.9,0.2,0],[0.5,0,0],[0.995,0.63,0],[0.72,0.99,0],[0.5,1,0],[0.28,0.99,0]];shape=mxgraph.kubernetes.icon2;prIcon=pod" vertex="1" parent="1">
          <mxGeometry x="240" y="-233.5" width="50" height="48" as="geometry" />
        </mxCell>
        <mxCell id="F7SO71zOL6z4TsnCkw2o-42" value="Marketplace Admin&lt;br&gt;&lt;div&gt;&lt;span style=&quot;background-color: transparent; color: light-dark(rgb(0, 0, 0), rgb(255, 255, 255));&quot;&gt;admin&lt;/span&gt;.remonster.world&lt;/div&gt;" style="aspect=fixed;sketch=0;html=1;dashed=0;whitespace=wrap;verticalLabelPosition=bottom;verticalAlign=top;fillColor=#2875E2;strokeColor=#ffffff;points=[[0.005,0.63,0],[0.1,0.2,0],[0.9,0.2,0],[0.5,0,0],[0.995,0.63,0],[0.72,0.99,0],[0.5,1,0],[0.28,0.99,0]];shape=mxgraph.kubernetes.icon2;prIcon=pod" vertex="1" parent="1">
          <mxGeometry x="240" y="-423.5" width="50" height="48" as="geometry" />
        </mxCell>
        <mxCell id="F7SO71zOL6z4TsnCkw2o-43" value="" style="rounded=1;whiteSpace=wrap;html=1;" vertex="1" parent="1">
          <mxGeometry x="386" y="-120" width="170" height="300" as="geometry" />
        </mxCell>
        <mxCell id="F7SO71zOL6z4TsnCkw2o-44" value="Marketplace API Mainnet&lt;br&gt;&lt;div&gt;&lt;span style=&quot;background-color: transparent; color: light-dark(rgb(0, 0, 0), rgb(255, 255, 255));&quot;&gt;marketplace-&lt;/span&gt;api&lt;/div&gt;&lt;div&gt;.remonster.world&lt;/div&gt;" style="aspect=fixed;sketch=0;html=1;dashed=0;whitespace=wrap;verticalLabelPosition=bottom;verticalAlign=top;fillColor=#2875E2;strokeColor=#ffffff;points=[[0.005,0.63,0],[0.1,0.2,0],[0.9,0.2,0],[0.5,0,0],[0.995,0.63,0],[0.72,0.99,0],[0.5,1,0],[0.28,0.99,0]];shape=mxgraph.kubernetes.icon2;prIcon=pod" vertex="1" parent="1">
          <mxGeometry x="446" y="-110" width="50" height="48" as="geometry" />
        </mxCell>
        <mxCell id="F7SO71zOL6z4TsnCkw2o-45" value="Marketplace API Staging&lt;br&gt;&lt;div&gt;&lt;span style=&quot;background-color: transparent; color: light-dark(rgb(0, 0, 0), rgb(255, 255, 255));&quot;&gt;marketplace-&lt;/span&gt;api-staging&lt;/div&gt;&lt;div&gt;.remonster.world&lt;/div&gt;" style="aspect=fixed;sketch=0;html=1;dashed=0;whitespace=wrap;verticalLabelPosition=bottom;verticalAlign=top;fillColor=#2875E2;strokeColor=#ffffff;points=[[0.005,0.63,0],[0.1,0.2,0],[0.9,0.2,0],[0.5,0,0],[0.995,0.63,0],[0.72,0.99,0],[0.5,1,0],[0.28,0.99,0]];shape=mxgraph.kubernetes.icon2;prIcon=pod" vertex="1" parent="1">
          <mxGeometry x="446" y="-18" width="50" height="48" as="geometry" />
        </mxCell>
        <mxCell id="F7SO71zOL6z4TsnCkw2o-46" value="Marketplace API Testnet&lt;br&gt;&lt;div&gt;&lt;span style=&quot;background-color: transparent; color: light-dark(rgb(0, 0, 0), rgb(255, 255, 255));&quot;&gt;marketplace-&lt;/span&gt;api-testnet&lt;/div&gt;&lt;div&gt;.remonster.world&lt;/div&gt;" style="aspect=fixed;sketch=0;html=1;dashed=0;whitespace=wrap;verticalLabelPosition=bottom;verticalAlign=top;fillColor=#2875E2;strokeColor=#ffffff;points=[[0.005,0.63,0],[0.1,0.2,0],[0.9,0.2,0],[0.5,0,0],[0.995,0.63,0],[0.72,0.99,0],[0.5,1,0],[0.28,0.99,0]];shape=mxgraph.kubernetes.icon2;prIcon=pod" vertex="1" parent="1">
          <mxGeometry x="446" y="80" width="50" height="48" as="geometry" />
        </mxCell>
        <mxCell id="F7SO71zOL6z4TsnCkw2o-48" value="blockchain-remonster-testnet" style="shape=cylinder3;whiteSpace=wrap;html=1;boundedLbl=1;backgroundOutline=1;size=15;" vertex="1" parent="1">
          <mxGeometry x="680" y="353" width="70" height="80" as="geometry" />
        </mxCell>
        <mxCell id="F7SO71zOL6z4TsnCkw2o-49" value="blockchain-remonster-staging" style="shape=cylinder3;whiteSpace=wrap;html=1;boundedLbl=1;backgroundOutline=1;size=15;" vertex="1" parent="1">
          <mxGeometry x="680" y="268" width="70" height="80" as="geometry" />
        </mxCell>
        <mxCell id="F7SO71zOL6z4TsnCkw2o-50" value="&lt;div&gt;blockchain-&lt;/div&gt;remonster-mainnet" style="shape=cylinder3;whiteSpace=wrap;html=1;boundedLbl=1;backgroundOutline=1;size=15;" vertex="1" parent="1">
          <mxGeometry x="680" y="184" width="70" height="80" as="geometry" />
        </mxCell>
      </root>
    </mxGraphModel>
  </diagram>
</mxfile>
